# xmcd CD database file
#
# Track frame offsets:
#	150
#	58007
#	74261
#	109628
#	141952
#	181700
#	203385
#	234727
#
# Disc length: 3823 seconds
#
# Revision: 2
# Processed by: cddbd v1.4PL0 Copyright (c) Steve Scherf et al.
# Submitted via: CDex 1.50
#
DISCID=690eed08
DTITLE=T.O.J.O.  - Fall 2003 Disc 1
DYEAR=2003
DGENRE=Jazz
TTITLE0=Just Friends - Bill Holman
TTITLE1=Us - Thad Jones
TTITLE2=Lickety Split - Jim McNeely
TTITLE3=Willow - Maria Schneider
TTITLE4=Days of Wine and Roses
TTITLE5=Track 06 - Maria Schneider
TTITLE6=305 - Jim McNeely
TTITLE7=Rivers - Mike Malone
EXTD=YEAR: 2003
EXTT0=
EXTT1=
EXTT2=
EXTT3=
EXTT4=
EXTT5=
EXTT6=
EXTT7=
PLAYORDER=
